<svg xmlns="http://www.w3.org/2000/svg" height="48" viewBox="0 0 48 48" width="48"><path fill="#798790" d="M10.291,37.971h19.861c1.061,0,1.986-0.398,2.782-1.193c0.794-0.793,1.19-1.721,1.19-2.779v-6.244l9.08,5.221v-17.25
	l-9.08,5.22v-6.242c0-1.06-0.396-1.986-1.19-2.78c-0.796-0.795-1.722-1.192-2.782-1.192H10.291c-1.059,0-1.986,0.397-2.78,1.192
	c-0.796,0.794-1.192,1.72-1.192,2.78v19.295c0,1.059,0.396,1.986,1.192,2.779C8.305,37.572,9.232,37.971,10.291,37.971z"/>
    <rect x="-4.378" y="23.89" transform="matrix(0.7071 0.7071 -0.7071 0.7071 25.0382 -9.6976)" width="57.205" height="2.97" fill="#798790"/>
</svg>