<?xml version="1.0" encoding="UTF-8"?>
<svg id="_레이어_2" data-name="레이어 2" xmlns="http://www.w3.org/2000/svg" viewBox="0 0 111.21 17.31">
  <defs>
    <style>
      .cls-1 {
        fill: #0072bf;
      }

      .cls-2 {
        fill: #fff;
      }

      .cls-3 {
        fill: #e72d22;
      }

      .cls-4 {
        fill: #009fb4;
      }

      .cls-5 {
        fill: #f5a200;
      }
    </style>
  </defs>
  <g id="_레이어_3" data-name="레이어 3">
    <g>
      <path class="cls-4" d="m41.79,6.1c-.04-.13-.07-.26-.07-.41,0-.71.57-1.28,1.28-1.28.11,0,.22.02.32.04-.89-.67-2-1.07-3.23-1.07v2.23c.63,0,1.21.18,1.69.49"/>
      <path class="cls-4" d="m44.23,5.34c.03.11.05.23.05.36,0,.71-.57,1.28-1.28,1.28-.14,0-.27-.02-.4-.06.33.49.51,1.08.51,1.74h2.26c0-1.27-.43-2.42-1.15-3.32"/>
      <path class="cls-5" d="m43.12,8.65h0c0,1.73-1.3,3.04-3.02,3.05v2.23c2.96,0,5.28-2.32,5.28-5.27h0s-2.26,0-2.26,0Z"/>
      <path class="cls-1" d="m40.09,5.6s0,0,.01,0v-2.23s0,0,0,0c-2.96,0-5.27,2.32-5.27,5.27h2.27c0-1.74,1.29-3.05,3.01-3.05"/>
      <path class="cls-3" d="m40.09,11.7c-1.71,0-3.01-1.31-3.01-3.05h-2.27c0,2.96,2.32,5.27,5.27,5.27,0,0,0,0,0,0v-2.23s0,0-.01,0"/>
    </g>
    <g id="microsystems">
      <g>
        <path class="cls-2" d="m13.35,7.65v5.7h-1.6v-5.65c0-1.45-.81-2.24-2.02-2.24-1.28,0-2.26.81-2.26,2.79v5.1h-1.6v-5.65c0-1.45-.75-2.24-1.94-2.24s-2.35.81-2.35,2.79v5.1H0V4.19h1.6v1.23c.66-1.03,1.61-1.47,2.73-1.47,1.25,0,2.16.57,2.7,1.56.64-1.05,1.69-1.56,2.88-1.56,2.04,0,3.45,1.41,3.45,3.7"/>
        <path class="cls-2" d="m15.3,1.45c0-.59.48-1.08,1.08-1.08s1.06.5,1.06,1.08-.48,1.06-1.06,1.06-1.08-.48-1.08-1.06m.27,2.73h1.6v9.17h-1.6V4.19Z"/>
        <path class="cls-2" d="m19.09,8.77c0-2.71,2.05-4.82,4.82-4.82,1.82,0,3.36.95,4.05,2.4l-1.34.77c-.46-.97-1.49-1.61-2.71-1.61-1.83,0-3.23,1.41-3.23,3.26s1.39,3.25,3.23,3.25c1.25,0,2.26-.64,2.77-1.6l1.36.79c-.77,1.43-2.33,2.38-4.13,2.38-2.77,0-4.82-2.11-4.82-4.82"/>
        <path class="cls-2" d="m34.1,4.02v1.67c-1.38-.05-2.86.64-2.86,2.81v4.86h-1.6V4.19h1.6v1.54c.59-1.28,1.71-1.71,2.86-1.71"/>
        <path class="cls-2" d="m53.67,10.84c0,1.71-1.47,2.75-3.43,2.75-1.83,0-3.12-.88-3.65-2.15l1.38-.79c.29.88,1.14,1.43,2.27,1.43.97,0,1.82-.35,1.82-1.25,0-1.96-5.13-.84-5.13-4.16,0-1.61,1.39-2.73,3.25-2.73,1.5,0,2.71.72,3.3,1.91l-1.34.75c-.35-.83-1.16-1.17-1.96-1.17s-1.63.4-1.63,1.23c0,1.96,5.13.81,5.13,4.18"/>
        <path class="cls-2" d="m63.21,4.19l-3.74,9.74c-.77,2.05-2.2,3.23-4.07,3.1v-1.49c1.23.09,2-.66,2.48-1.87l.17-.35-4-9.13h1.71l3.12,7.19,2.64-7.19h1.71Z"/>
        <path class="cls-2" d="m70.49,10.84c0,1.71-1.47,2.75-3.43,2.75-1.83,0-3.12-.88-3.65-2.15l1.38-.79c.29.88,1.14,1.43,2.27,1.43.97,0,1.82-.35,1.82-1.25,0-1.96-5.13-.84-5.13-4.16,0-1.61,1.39-2.73,3.25-2.73,1.5,0,2.71.72,3.3,1.91l-1.34.75c-.35-.83-1.16-1.17-1.96-1.17s-1.63.4-1.63,1.23c0,1.96,5.13.81,5.13,4.18"/>
        <path class="cls-2" d="m74.57,5.73v4.97c0,1.39.81,1.3,2.44,1.23v1.43c-2.75.37-4.03-.37-4.03-2.66v-4.97h-1.82v-1.54h1.82v-2.09l1.6-.48v2.57h2.44v1.54h-2.44Z"/>
        <path class="cls-2" d="m82.87,12.09c1.27,0,2.18-.59,2.64-1.34l1.36.77c-.81,1.25-2.2,2.07-4.03,2.07-2.95,0-4.91-2.07-4.91-4.82s1.94-4.82,4.8-4.82,4.57,2.27,4.57,4.84c0,.24-.02.48-.05.72h-7.68c.31,1.65,1.61,2.59,3.32,2.59m-3.32-3.98h6.13c-.28-1.82-1.58-2.66-2.95-2.66-1.72,0-2.92,1.06-3.17,2.66"/>
        <path class="cls-2" d="m102.48,7.65v5.7h-1.6v-5.65c0-1.45-.81-2.24-2.02-2.24-1.28,0-2.26.81-2.26,2.79v5.1h-1.6v-5.65c0-1.45-.75-2.24-1.94-2.24s-2.35.81-2.35,2.79v5.1h-1.6V4.19h1.6v1.23c.66-1.03,1.61-1.47,2.73-1.47,1.25,0,2.16.57,2.7,1.56.64-1.05,1.69-1.56,2.88-1.56,2.04,0,3.45,1.41,3.45,3.7"/>
        <path class="cls-2" d="m111.21,10.84c0,1.71-1.47,2.75-3.43,2.75-1.83,0-3.12-.88-3.65-2.15l1.38-.79c.29.88,1.14,1.43,2.27,1.43.97,0,1.82-.35,1.82-1.25,0-1.96-5.14-.84-5.14-4.16,0-1.61,1.39-2.73,3.25-2.73,1.5,0,2.71.72,3.3,1.91l-1.34.75c-.35-.83-1.16-1.17-1.96-1.17s-1.63.4-1.63,1.23c0,1.96,5.13.81,5.13,4.18"/>
        <path class="cls-2" d="m44.69,14.65c-1.27.98-2.87,1.56-4.59,1.56s-3.32-.58-4.59-1.56h-1.64c1.58,1.64,3.79,2.66,6.23,2.66s4.66-1.02,6.23-2.66h-1.64Z"/>
        <path class="cls-2" d="m35.51,2.66c1.27-.98,2.87-1.56,4.59-1.56s3.32.58,4.59,1.56h1.64c-1.58-1.64-3.79-2.66-6.23-2.66s-4.66,1.02-6.23,2.66h1.64Z"/>
      </g>
    </g>
  </g>
</svg>