<?xml version="1.0" encoding="UTF-8"?>
<svg id="_레이어_2" data-name="레이어 2" xmlns="http://www.w3.org/2000/svg" viewBox="0 0 63.72 61.26">
  <defs>
    <style>
      .cls-1 {
        fill: #24272c;
      }
    </style>
  </defs>
  <g id="_레이어_1-2" data-name="레이어 1">
    <path class="cls-1" d="m58.32,22.92h-2.32C54.86,10.06,44.49,0,31.86,0S8.86,10.06,7.71,22.92h-2.32c-2.98,0-5.4,2.42-5.4,5.4v27.55c0,2.98,2.42,5.4,5.4,5.4h52.93c2.98,0,5.4-2.42,5.4-5.4v-27.55c0-2.98-2.42-5.4-5.4-5.4Zm-26.46,22.79c-2.91,0-5.28-2.36-5.28-5.28s2.36-5.28,5.28-5.28,5.28,2.36,5.28,5.28-2.36,5.28-5.28,5.28Zm-13.71-22.79c1.1-6.77,6.81-11.93,13.71-11.93s12.61,5.16,13.71,11.93h-27.42Z"/>
  </g>
</svg>